<svg id="Layer_1" data-name="Layer 1" xmlns="http://www.w3.org/2000/svg" width="175" height="200" viewBox="0 0 175 200"><defs><style>.cls-1{fill:#8a8e36}.cls-2{fill:#503d15}.cls-3{clip-path:url(#clip-path)}.cls-4{fill:#c1c17d}</style><clipPath id="clip-path"><path class="cls-1" d="M80.85 79.67a25.4 25.4 0 1 0-18-31.11 25.4 25.4 0 0 0 18 31.11z"/></clipPath></defs><title>Artboard 1</title><path class="cls-2" d="M31.4 143.83c0 5 0 6.9-1 9.09-.72 1.54-2.23 3-5 4.71a14.37 14.37 0 0 1-1.34.77.55.55 0 0 1-.24.06c-.1 0-.24-.06-.24-.18s.17-.28.48-.46a6.63 6.63 0 0 0 1.2-.86c2.23-2 3.29-3.67 3.29-11.61v-8.9c0-4.8 0-5.67-.07-6.65s-.37-1.56-1.48-1.8a7.09 7.09 0 0 0-1.16-.09c-.14 0-.27-.06-.27-.18s.17-.25.55-.25c1.54 0 3.7.09 3.87.09s2.33-.09 3.36-.09c.38 0 .55.06.55.25s-.14.18-.27.18a5.62 5.62 0 0 0-.86.09c-.92.15-1.2.68-1.27 1.76s-.07 1.85-.07 6.65zm18.82-16.76c7.7 0 13.46 4.37 13.46 11.55 0 6.9-5.41 12.6-13.66 12.6-9.38 0-13.29-6.56-13.29-12.11 0-4.98 4.04-12.04 13.49-12.04zm.72 23c3.08 0 9.45-1.6 9.45-10.57 0-7.39-5-11.37-10.41-11.37-5.72 0-10 3.39-10 10.14.02 7.16 4.8 11.78 10.96 11.78zm21.18-8.15c0 4.53.14 6.5.75 7.05s1.44.71 4.11.71c1.81 0 3.32 0 4.14-.92a4.1 4.1 0 0 0 .89-1.85c0-.25.1-.4.31-.4s.21.12.21.46a17.83 17.83 0 0 1-.51 3.08c-.24.71-.34.83-2.16.83-4.93 0-7.19-.18-9.18-.18-.31 0-2.33.09-3.36.09-.38 0-.55-.06-.55-.25s.07-.18.27-.18a5.84 5.84 0 0 0 1-.12c.68-.12.86-.8 1-1.69.17-1.29.17-3.73.17-6.68v-5.42c0-4.8 0-5.67-.07-6.65s-.34-1.54-1.47-1.76a7.09 7.09 0 0 0-1.16-.09c-.14 0-.27-.06-.27-.18s.17-.25.55-.25c1.54 0 3.7.09 3.87.09s2.67-.09 3.7-.09c.38 0 .55.06.55.25s-.14.18-.27.18a8.88 8.88 0 0 0-1.13.09c-1 .15-1.27.68-1.34 1.76s-.07 1.85-.07 6.65zm20.26 0c0 4.53.14 6.5.75 7.05s1.44.71 4.11.71c1.81 0 3.32 0 4.14-.92a4.11 4.11 0 0 0 .89-1.85c0-.25.1-.4.31-.4s.21.12.21.46a17.84 17.84 0 0 1-.51 3.08c-.24.71-.34.83-2.16.83-4.93 0-7.19-.18-9.18-.18-.31 0-2.33.09-3.36.09-.38 0-.55-.06-.55-.25s.07-.18.27-.18a5.84 5.84 0 0 0 1-.12c.68-.12.86-.8 1-1.69.17-1.29.17-3.73.17-6.68v-5.42c0-4.8 0-5.67-.07-6.65s-.3-1.56-1.4-1.8a7.09 7.09 0 0 0-1.16-.09c-.14 0-.27-.06-.27-.18s.17-.25.55-.25c1.54 0 3.7.09 3.87.09s2.67-.09 3.7-.09c.38 0 .55.06.55.25s-.14.18-.27.18a8.88 8.88 0 0 0-1.13.09c-1 .15-1.27.68-1.34 1.76s-.07 1.85-.07 6.65zm17.39-5.48c0-4.8 0-5.67-.07-6.65s-.34-1.54-1.47-1.76a7.09 7.09 0 0 0-1.16-.09c-.14 0-.27-.06-.27-.18s.17-.25.55-.25c1.54 0 3.7.09 3.87.09h7.84a10.19 10.19 0 0 0 1.47-.15c.17 0 .31-.15.48-.15s.14.12.14.28-.17.59-.27 1.45c0 .31-.1 1.66-.17 2 0 .15-.1.34-.24.34s-.27-.15-.27-.4a3 3 0 0 0-.2-1.11c-.24-.49-.58-.86-2.43-1-.58-.06-4.31-.09-4.69-.09-.14 0-.2.09-.2.31v8.5c0 .22 0 .31.2.31.44 0 4.66 0 5.44-.06s1.3-.12 1.61-.43.38-.4.51-.4.17.06.17.25-.17.71-.27 1.73c-.07.62-.14 1.76-.14 2s0 .58-.24.58-.24-.12-.24-.28a2.85 2.85 0 0 0-.14-1c-.14-.43-.44-1-1.78-1.08-.92-.09-4.31-.15-4.9-.15-.17 0-.24.09-.24.22v7.98c.1 2.13.62 2.53 4 2.53a10.88 10.88 0 0 0 3.29-.34c.89-.34 1.3-1 1.54-2.22.07-.34.14-.46.31-.46s.21.25.21.46a27.11 27.11 0 0 1-.45 3c-.24.8-.51.8-1.85.8-5.17 0-7.47-.18-8.46-.18-.17 0-2.33.09-3.36.09-.38 0-.55-.06-.55-.25s.07-.18.27-.18a5.84 5.84 0 0 0 1-.12c.68-.12.86-.8 1-1.69.17-1.29.17-3.73.17-6.68zm25.52 6.37a6 6 0 0 0-.79-3.23c-.24-.49-4.83-7.27-6-8.87a9.08 9.08 0 0 0-2.33-2.28 3.52 3.52 0 0 0-1.47-.49c-.17 0-.34-.06-.34-.22s.14-.21.45-.21c.65 0 3.22.09 3.39.09s1.54-.09 2.88-.09c.38 0 .44.09.44.21s-.2.15-.51.28a.63.63 0 0 0-.44.55 2.45 2.45 0 0 0 .44 1.2c.55.89 5.68 8.84 6.3 9.73.65-1.29 5-8 5.68-9.06a2.8 2.8 0 0 0 .58-1.57c0-.43-.14-.77-.55-.86s-.51-.15-.51-.31.2-.18.55-.18c.89 0 2 .09 2.26.09s2.67-.09 3.32-.09c.24 0 .44.06.44.18s-.17.25-.44.25a3.53 3.53 0 0 0-1.58.43 6.29 6.29 0 0 0-1.81 1.57 96.73 96.73 0 0 0-6.54 9.8 6.7 6.7 0 0 0-.51 3.08v2.65c0 .49 0 1.79.1 3.08.07.89.38 1.57 1.4 1.69.48.06 1.23.12 1.54.12s.27.09.27.18-.17.25-.55.25c-1.88 0-4-.09-4.21-.09s-2.33.09-3.36.09c-.38 0-.55-.06-.55-.25s.07-.18.27-.18a5.85 5.85 0 0 0 1-.12c.68-.12 1-.8 1.06-1.69.1-1.29.1-2.59.1-3.08zM27.41 106.42c0-3.62 0-4.27-.05-5s-.26-1.16-1.11-1.32a5.33 5.33 0 0 0-.88-.07c-.1 0-.21 0-.21-.14s.13-.19.41-.19c1.16 0 2.78.07 2.91.07.31 0 1.93-.07 3.48-.07 2.55 0 7.26-.21 10.33 2.64a7.87 7.87 0 0 1 2.5 5.89 9 9 0 0 1-2.79 6.54c-1.11 1-3.43 2.67-7.81 2.67-2.22 0-5.46-.28-5.72-.28s-1.75.07-2.52.07c-.28 0-.41 0-.41-.18s.05-.14.21-.14a4.39 4.39 0 0 0 .77-.09c.52-.09.64-.6.75-1.28.13-1 .13-2.81.13-5zm2.16 2.5c0 2.46 0 4.59.05 5a4.6 4.6 0 0 0 .28 1.76c.33.44 1.34.93 4.38.93a9.18 9.18 0 0 0 6.13-2.16 7.62 7.62 0 0 0 2.06-5.54A7.89 7.89 0 0 0 40 103.1c-2.42-2.29-5.36-2.62-8.42-2.62a7.67 7.67 0 0 0-1.67.16.42.42 0 0 0-.31.46v4.94zm28.15-9.55c5.8 0 10.12 3.29 10.12 8.69 0 5.19-4.07 9.48-10.28 9.48-7.06 0-10-4.94-10-9.11.02-3.75 3.06-9.06 10.16-9.06zm.54 17.3c2.32 0 7.11-1.21 7.11-8 0-5.57-3.76-8.56-7.83-8.56-4.3 0-7.52 2.55-7.52 7.63-.02 5.45 3.61 8.93 8.25 8.93zM73.74 115a8.44 8.44 0 0 1-3.12-6.86 8.77 8.77 0 0 1 2.89-6.33c1.55-1.39 3.89-2.48 7.86-2.48a24.49 24.49 0 0 1 3.73.28 24.6 24.6 0 0 0 2.63.35c.28 0 .33.12.33.26s-.08.46-.13 1.3-.05 2-.08 2.39-.08.49-.23.49-.21-.16-.21-.49a3.06 3.06 0 0 0-1.08-2.36 9.26 9.26 0 0 0-5.15-1.32c-3.43 0-5 .9-5.92 1.69-1.88 1.62-2.32 3.69-2.32 6.05 0 4.43 3.79 8.49 9.3 8.49 1.93 0 3.45-.21 4.48-1.16a4.2 4.2 0 0 0 1-1.95c.05-.26.1-.35.26-.35s.18.16.18.35a21.7 21.7 0 0 1-.57 3c-.15.44-.21.49-.67.67a16.44 16.44 0 0 1-4.64.53c-3.9 0-6.5-.86-8.54-2.55zm25.39-4.5c0 2.23 0 4.06.13 5 .08.67.23 1.18 1 1.28.36 0 .93.09 1.16.09s.21.07.21.14-.13.18-.41.18c-1.42 0-3-.07-3.17-.07s-1.75.07-2.52.07c-.28 0-.41 0-.41-.18s.05-.14.21-.14a4.37 4.37 0 0 0 .77-.09c.52-.09.64-.6.75-1.28.13-1 .13-2.81.13-5v-9.81h-3.81c-1.6 0-2.22.19-2.63.74a4 4 0 0 0-.44.72c-.08.18-.15.23-.26.23s-.13-.07-.13-.21.52-2.23.57-2.41.15-.44.26-.44a5.25 5.25 0 0 0 1.13.28c.75.07 1.73.12 2 .12h9.66a15 15 0 0 0 1.83-.12 6.8 6.8 0 0 1 .72-.12c.13 0 .13.14.13.28 0 .7-.08 2.3-.08 2.55s-.08.3-.18.3-.18-.07-.21-.39v-.26c-.1-.69-.7-1.23-3.17-1.28h-3.24zm18.24-11.13c5.8 0 10.12 3.29 10.12 8.69 0 5.19-4.07 9.48-10.28 9.48-7.06 0-10-4.94-10-9.11.01-3.75 3.05-9.06 10.16-9.06zm.54 17.3c2.32 0 7.11-1.21 7.11-8 0-5.57-3.76-8.56-7.83-8.56-4.3 0-7.52 2.55-7.52 7.63 0 5.45 3.6 8.93 8.24 8.93zm14.52-10.25c0-3.62 0-4.27-.05-5s-.26-1.16-1.11-1.32a5.32 5.32 0 0 0-.87-.07c-.1 0-.21 0-.21-.14s.13-.19.41-.19c1.16 0 2.78.07 2.91.07.28 0 2.24-.07 3-.07a8.63 8.63 0 0 1 4.71 1 4 4 0 0 1 1.78 3.15c0 1.72-.8 3.43-3.12 5.36 2.11 2.44 3.87 4.5 5.36 5.94a5.52 5.52 0 0 0 3.14 1.67 6.89 6.89 0 0 0 1 .07c.13 0 .23.07.23.14s-.16.18-.62.18h-1.83a5.76 5.76 0 0 1-2.76-.44c-1.11-.53-2-1.67-3.48-3.41-1.08-1.28-2.29-2.83-2.81-3.43a.43.43 0 0 0-.33-.14h-3.17c-.13 0-.18.07-.18.19v.56c0 2.23 0 4.06.13 5 .08.67.23 1.18 1 1.28.36 0 .93.09 1.16.09s.21.07.21.14-.13.18-.41.18c-1.42 0-3-.07-3.17-.07s-1.65.07-2.42.07c-.28 0-.41 0-.41-.18s.05-.14.21-.14a4.37 4.37 0 0 0 .77-.09c.52-.09.64-.6.75-1.28.13-1 .13-2.81.13-5zm2.06 2a.3.3 0 0 0 .18.28 7.83 7.83 0 0 0 2.71.37 3.63 3.63 0 0 0 1.93-.44 4 4 0 0 0 1.57-3.57c0-2.9-1.7-4.64-4.46-4.64a8.64 8.64 0 0 0-1.73.14.28.28 0 0 0-.21.28zM25.14 122.23H151v.64H25.14zm5.28 46.32a3.9 3.9 0 0 1-1.23-3 4.07 4.07 0 0 1 1.14-2.78 4.12 4.12 0 0 1 3.11-1.09 8.74 8.74 0 0 1 1.48.12 8.72 8.72 0 0 0 1 .15c.11 0 .13.05.13.11s0 .2-.05.57 0 .9 0 1.05 0 .21-.09.21-.08-.07-.08-.21a1.41 1.41 0 0 0-.43-1 3.39 3.39 0 0 0-2-.58 3.12 3.12 0 0 0-2.34.74 3.41 3.41 0 0 0-.92 2.66 3.68 3.68 0 0 0 3.68 3.73 2.34 2.34 0 0 0 1.77-.51 1.94 1.94 0 0 0 .38-.86c0-.11 0-.15.1-.15s.07.07.07.15a10.59 10.59 0 0 1-.22 1.3c-.06.19-.08.21-.27.3a5.89 5.89 0 0 1-1.83.23 4.7 4.7 0 0 1-3.4-1.14zm7.9-3.09v-1.86c0-.27-.07-.44-.37-.48h-.31a.09.09 0 0 1-.07-.07c0-.05 0-.07.14-.07h2.18a2.94 2.94 0 0 1 1.67.38 1.52 1.52 0 0 1 .62 1.18 2.53 2.53 0 0 1-1.1 2c.73.92 1.36 1.7 1.87 2.24a1.64 1.64 0 0 0 1 .6 1.6 1.6 0 0 0 .32 0 .08.08 0 0 1 .08.07c0 .05-.05.07-.21.07h-.56a1.8 1.8 0 0 1-1-.17 4.57 4.57 0 0 1-1.22-1.27c-.38-.47-.77-1-1-1.26a.14.14 0 0 0-.12-.05H39.1s-.06 0-.06.07v2.06c0 .35.08.42.36.46h.4a.06.06 0 0 1 .07.07s0 .07-.14.07h-1.99c-.09 0-.14 0-.14-.07a.07.07 0 0 1 .07-.07 1.22 1.22 0 0 0 .28 0c.17 0 .19-.2.23-.46a17.71 17.71 0 0 0 .05-1.87zm.77.73a.13.13 0 0 0 .06.11 3 3 0 0 0 1 .13 1.17 1.17 0 0 0 .67-.15 1.54 1.54 0 0 0 .54-1.32 1.5 1.5 0 0 0-1.55-1.7 3.93 3.93 0 0 0-.64.05.11.11 0 0 0-.07.1z"/><path class="cls-2" d="M46.53 163.13c.11-.29.15-.34.21-.34s.12.12.21.32c.16.37 1.6 3.94 2.15 5.26.33.77.57.89.76.95a1.23 1.23 0 0 0 .36.05c.05 0 .11 0 .11.07s-.1.07-.2.07h-1.42c-.17 0-.32 0-.32-.06s0 0 .06-.06a.16.16 0 0 0 .08-.23l-.81-2s0-.05-.08-.05h-2.05a.1.1 0 0 0-.09.07l-.5 1.37a1.79 1.79 0 0 0-.13.58c0 .17.15.23.31.23h.08c.07 0 .09 0 .09.07s-.05.07-.13.07H43.5c-.11 0-.17 0-.17-.07a.08.08 0 0 1 .08-.07h.27c.41-.05.58-.36.75-.8zm1 3.61v-.06l-.89-2.37q-.08-.2-.15 0l-.84 2.37v.06zm4.81.26v1.87c0 .35.06.42.33.46h.41a.07.07 0 0 1 .07.07s0 .07-.14.07H51c-.09 0-.14 0-.14-.07a.07.07 0 0 1 .07-.07 1.23 1.23 0 0 0 .28 0c.17 0 .2-.2.23-.46s.05-1 .05-1.87v-3.39c0-.27-.09-.43-.29-.47h-.28a.08.08 0 0 1-.07-.07c0-.05 0-.07.14-.07h1.81c.1 0 .14 0 .14.07a.09.09 0 0 1-.07.07 1 1 0 0 0-.22 0c-.24.05-.3.17-.32.48s0 .52 0 1.86zm7.28.3c0-.7 0-.81-.39-.88h-.31a.09.09 0 0 1-.07-.07c0-.06 0-.07.14-.07h1.94c.1 0 .14 0 .14.07a.09.09 0 0 1-.07.07 1 1 0 0 0-.22 0c-.24 0-.32.17-.34.48s0 .53 0 .9v1c0 .4 0 .41-.12.47a5.05 5.05 0 0 1-4.86-.54 3.32 3.32 0 0 1-1.07-2.47 3.24 3.24 0 0 1 1.5-2.84 4.5 4.5 0 0 1 2.38-.55 7.55 7.55 0 0 1 1.38.14 3.84 3.84 0 0 0 .72.09c.09 0 .11 0 .11.08s-.05.36-.05 1.22c0 .14 0 .18-.1.18s-.06-.05-.06-.13a1.28 1.28 0 0 0-.2-.57 2.56 2.56 0 0 0-2.07-.67 2.85 2.85 0 0 0-1.87.56 2.7 2.7 0 0 0-.89 2.18 3.45 3.45 0 0 0 .95 2.39 3.2 3.2 0 0 0 2.29.91 2.26 2.26 0 0 0 1-.16c.11-.06.18-.1.18-.27zm7.06-2.54v-2.2c0-.33-.1-.51-.44-.58a1.82 1.82 0 0 0-.35 0s-.08 0-.08-.06.05-.08.16-.08h2.35a3.14 3.14 0 0 1 1.86.45 1.79 1.79 0 0 1 .7 1.39 3.15 3.15 0 0 1-1.24 2.32c.84 1.07 1.53 2 2.12 2.61a2.1 2.1 0 0 0 1.24.73 2.38 2.38 0 0 0 .4 0c.05 0 .09 0 .09.06s-.06.08-.24.08h-.72a2.07 2.07 0 0 1-1.09-.19 5.31 5.31 0 0 1-1.38-1.5c-.43-.56-.91-1.24-1.11-1.51a.17.17 0 0 0-.13-.06h-1.25c-.05 0-.07 0-.07.08v.25c0 1 0 1.78.05 2.21s.09.52.4.56h.46c.06 0 .08 0 .08.06s-.05.08-.16.08h-2.25c-.11 0-.16 0-.16-.08s0-.06.08-.06a1.51 1.51 0 0 0 .31 0c.2 0 .25-.26.3-.56s.05-1.23.05-2.21zm.81.89a.13.13 0 0 0 .07.12 2.8 2.8 0 0 0 1.07.16 1.32 1.32 0 0 0 .76-.19 1.86 1.86 0 0 0 .62-1.57c0-1.27-.67-2-1.76-2a3 3 0 0 0-.68.06.12.12 0 0 0-.08.12z"/><path class="cls-2" d="M73.26 168.92a.55.55 0 0 1 .56-.56.52.52 0 0 1 .56.53.56.56 0 0 1-.57.59.54.54 0 0 1-.55-.56zm7.81-1.71a7.36 7.36 0 0 1-.31 3 3.86 3.86 0 0 1-1.49 1.56 4 4 0 0 1-.4.25h-.07a.07.07 0 0 1-.07-.06c0-.06.05-.09.14-.15a2 2 0 0 0 .36-.29c.66-.67 1-1.21 1-3.84v-5.15c0-.33-.1-.51-.44-.58a1.82 1.82 0 0 0-.35 0s-.08 0-.08-.06.05-.08.16-.08h2.15c.11 0 .16 0 .16.08s0 .06-.08.06h-.25c-.28.05-.36.22-.38.58s0 .61 0 2.2zm5.56-4.38a3.24 3.24 0 0 1 3.55 3.25 3.47 3.47 0 0 1-3.6 3.54 3.32 3.32 0 0 1-3.51-3.4 3.43 3.43 0 0 1 3.56-3.39zm.2 6.43c.8 0 2.42-.43 2.42-2.94 0-2.08-1.26-3.17-2.68-3.17S84 164.1 84 166s1.21 3.26 2.83 3.26zm6.03-2.26c0 1.27 0 1.79.18 1.95s.49.2 1.19.2c.47 0 .87 0 1.08-.27a1.07 1.07 0 0 0 .21-.49c0-.06 0-.11.09-.11s.06 0 .06.13a5.59 5.59 0 0 1-.13.87c-.06.2-.09.23-.57.23h-3.45c-.09 0-.14 0-.14-.07a.07.07 0 0 1 .07-.07 1.23 1.23 0 0 0 .28 0c.17 0 .19-.2.23-.46A17.45 17.45 0 0 0 92 167v-3.39c0-.27-.07-.44-.37-.48h-.31a.09.09 0 0 1-.07-.07c0-.05 0-.07.14-.07h2c.09 0 .14 0 .14.07s0 .06-.07.06h-.3c-.26.05-.32.18-.34.49s0 .52 0 1.86zm5.46 0c0 1.27 0 1.79.18 1.95s.49.2 1.19.2c.47 0 .87 0 1.08-.27a1.07 1.07 0 0 0 .21-.49c0-.06 0-.11.09-.11s.06 0 .06.13a5.57 5.57 0 0 1-.13.87c-.06.2-.09.23-.57.23h-3.45c-.09 0-.14 0-.14-.07a.07.07 0 0 1 .07-.07 1.23 1.23 0 0 0 .28 0c.17 0 .19-.2.23-.46a17.45 17.45 0 0 0 .08-1.91v-3.39c0-.27-.07-.44-.37-.48h-.31a.09.09 0 0 1-.07-.07c0-.05 0-.07.14-.07h2c.09 0 .14 0 .14.07s0 .06-.07.06h-.3c-.26.05-.32.18-.34.49s0 .52 0 1.86zm4.68-1.54v-1.86c0-.27-.07-.44-.37-.48h-.31a.09.09 0 0 1-.07-.07c0-.05 0-.07.14-.07h3.14c.2 0 .34 0 .41-.05s.08 0 .12 0 0 0 0 .08-.05.16-.07.41c0 .08 0 .47-.05.57s0 .09-.08.09-.07 0-.07-.11a1 1 0 0 0-.05-.31c-.06-.14-.15-.2-.64-.27h-1.29c-.1 0-.05 0-.05.09v2.35c0 .06 0 .09.05.09h1.5c.21 0 .35 0 .44-.12s.1-.11.13-.11.05 0 .05.07a4.61 4.61 0 0 0-.07.48v.56c0 .06 0 .16-.08.16s-.06 0-.06-.08a.78.78 0 0 0 0-.29c0-.12-.11-.22-.46-.27s-1.2 0-1.36 0-.06 0-.06.06v2.1c0 .58.18.69 1.07.69a3 3 0 0 0 .9-.09.66.66 0 0 0 .41-.6c0-.1 0-.13.09-.13s.06.07.06.13a7.3 7.3 0 0 1-.12.84c-.06.22-.15.22-.5.22h-3.27c-.09 0-.14 0-.14-.07a.07.07 0 0 1 .07-.07 2.6 2.6 0 0 0 .28 0c.17 0 .19-.2.23-.46A17.45 17.45 0 0 0 103 167zm6.82 1.8a1.55 1.55 0 0 0-.19-.89c-.07-.13-1.28-2.06-1.59-2.52a2.25 2.25 0 0 0-.59-.63.88.88 0 0 0-.38-.12.09.09 0 0 1-.07-.1s0-.06.11-.06h1.66c.1 0 .12 0 .12.06s-.06.06-.14.09-.11.07-.11.14a.72.72 0 0 0 .12.34l1.63 2.7c.18-.37 1.3-2.22 1.47-2.51a.92.92 0 0 0 .15-.45c0-.12 0-.19-.14-.22s-.13-.06-.13-.1.05-.05.14-.05h1.5c.06 0 .11 0 .11.05a.1.1 0 0 1-.11.09.92.92 0 0 0-.42.11 1.57 1.57 0 0 0-.45.43c-.3.35-1.56 2.38-1.74 2.75a1.72 1.72 0 0 0-.11.87v1.63c0 .36.08.42.35.46h.41a.07.07 0 0 1 .07.07s-.05.07-.14.07h-2.01c-.1 0-.14 0-.14-.07a.07.07 0 0 1 .07-.07 1.14 1.14 0 0 0 .27 0c.18 0 .24-.2.27-.46s0-.72 0-.87zm3.18 1.51c0-.29.37-.55.63-.55.05 0 .08 0 .18.19a.86.86 0 0 1 .17.44 1.55 1.55 0 0 1-.1.4 4.64 4.64 0 0 1-.65 1.09.21.21 0 0 1-.13.09.08.08 0 0 1-.07-.07l.07-.14a1.48 1.48 0 0 0 .24-.72c-.04-.5-.34-.6-.34-.73zm6.2-3.46v-1.95c0-.29-.09-.45-.39-.51a1.62 1.62 0 0 0-.31 0s-.07 0-.07-.05 0-.07.14-.07h2.22c.89 0 2.54-.08 3.61 1a3.22 3.22 0 0 1 .87 2.29 3.68 3.68 0 0 1-1 2.54 3.58 3.58 0 0 1-2.73 1c-.39 0-.87 0-1.25-.05l-.75-.05h-.88c-.1 0-.14 0-.14-.07s0-.05.07-.05a1.35 1.35 0 0 0 .27 0c.18 0 .22-.23.26-.5s0-1.09 0-2zm.76 1v2a2 2 0 0 0 .1.68c.12.17.47.36 1.53.36a3 3 0 0 0 2.14-.84 3.15 3.15 0 0 0 .72-2.15 3.22 3.22 0 0 0-.86-2.27 3.71 3.71 0 0 0-2.95-1 2.39 2.39 0 0 0-.59.06.16.16 0 0 0-.11.18v1.92zm14.16 2.03c0 .33.1.83.49 1a2 2 0 0 0 .59.08h.07s-.08.08-.19.08-1.17 0-1.51-.06-.25 0-.25-.09 0-.05.06-.06.05-.16 0-.33l-.43-4.65-2.2 4.69c-.19.4-.22.48-.3.48s-.11-.09-.28-.41-1-2-1.05-2.09-1.09-2.32-1.19-2.57l-.36 4.18v.46a.29.29 0 0 0 .23.28 1.65 1.65 0 0 0 .34 0h.07s-.05.08-.16.08h-1.6c-.09 0-.15 0-.15-.08s0 0 .09 0a1.18 1.18 0 0 0 .27 0c.3-.05.33-.41.36-.75l.65-5.88c0-.1 0-.16.1-.16s.09 0 .13.14l2.76 5.67 2.65-5.66c0-.08.07-.14.14-.14s.09.07.11.24zm2.8-3.03v-1.95c0-.29-.09-.45-.39-.51a1.62 1.62 0 0 0-.31 0s-.07 0-.07-.05 0-.07.14-.07h2.22c.89 0 2.54-.08 3.61 1A3.22 3.22 0 0 1 143 166a3.68 3.68 0 0 1-1 2.54 3.58 3.58 0 0 1-2.73 1c-.39 0-.87 0-1.25-.05l-.75-.05h-.88c-.1 0-.14 0-.14-.07s0-.05.07-.05a1.35 1.35 0 0 0 .27 0c.18 0 .22-.23.26-.5s0-1.09 0-2zm.76 1v2a2 2 0 0 0 .1.68c.12.17.47.36 1.53.36a3 3 0 0 0 2.14-.84 3.15 3.15 0 0 0 .72-2.15 3.22 3.22 0 0 0-.86-2.27 3.71 3.71 0 0 0-2.95-1 2.39 2.39 0 0 0-.59.06.16.16 0 0 0-.11.18v1.92zM83.6 84.62h-.15a29.61 29.61 0 1 1 9.41-.23 1.1 1.1 0 0 1-.4-2.16 27.42 27.42 0 1 0-8.72.22 1.1 1.1 0 0 1-.15 2.19z"/><path class="cls-1" d="M80.85 79.67a25.4 25.4 0 1 0-18-31.11 25.4 25.4 0 0 0 18 31.11z"/><g class="cls-3"><path class="cls-4" d="M122.77 10.24c-3.58 2.9-1.48 5.18-1.48 5.18 2.63-1.36 1.48-5.18 1.48-5.18m-5-2.32c1 1 1.69 4.51 1.69 4.51.65 2.67-2.94 8.77-2.94 8.77-1.51 3.24-1 7.94-1 7.94a4 4 0 0 1-1.12-1.83c-2.1-4.83-5-6.9-6.85-7.78a7 7 0 0 0-1.93-.63 7.58 7.58 0 0 1 .86.34c4.65 2.17 7.59 8.93 7.59 8.93 2.9 7.71.55 10.4.55 10.4a29.53 29.53 0 0 0-3.32 3.05 26 26 0 0 0-2.74 3.69C111.61 38 104 29.93 104 29.93c-5.57-5.59-6.19-9.9-6.19-9.9a9.64 9.64 0 0 0-4.91-5.7 5 5 0 0 0-.7-.27c4.47 2.16 5.48 7.66 5.48 7.66.92 4.44 5.4 8.14 5.4 8.14a19.7 19.7 0 0 1-3.08-1.2l-.72-.34c-4.27-3-3-2.5-6-4.75A18 18 0 0 0 91 22.2c-4.84-2.2-7.15-.2-7.15-.2a10.2 10.2 0 0 1 6.82.86 15 15 0 0 1 3.53 2.29A20.51 20.51 0 0 0 98.87 29c.57.31 1.11.57 1.59.8a21.7 21.7 0 0 0 2.28.93c6.22 5.6 4.71 11 4.71 11-.15-1.24-2.5-3.87-2.5-3.87a12.07 12.07 0 0 0-3-2c-3.73-1.74-8-1.8-9.42-2-4.72-.39-11.81-3.14-11.81-3.14a16.07 16.07 0 0 0 2 1.06c.45.21 1 .43 1.55.65a57.52 57.52 0 0 0 11.61 2.5 16 16 0 0 1 9.54 4.59c3.37 4.35-.66 9.55-.66 9.55-.73-5.16-6-7.68-6-7.68a9.91 9.91 0 0 1 4.55 7.16 2.39 2.39 0 0 1-2.23-.13 16.16 16.16 0 0 1-4.32-3.66A19.42 19.42 0 0 0 89.83 39c-2.82-1.31-5.18-1.24-7-1.54a36.54 36.54 0 0 1-9.52-1.47 10.91 10.91 0 0 1-1.25-.47A15 15 0 0 1 70 34.07c-.93-.39.19.43.19.43a9.5 9.5 0 0 0 2.65 1.74A24.63 24.63 0 0 0 78.75 38a42.86 42.86 0 0 1 6.73.8 12.63 12.63 0 0 1 3.59 1.07 16.94 16.94 0 0 1 7.3 7.13 6.52 6.52 0 0 0-.73-.4c-3.42-1.6-7.78-.14-7.78-.14-2.4 1.07-6 2.95-6 2.95a9.79 9.79 0 0 1-8-.05A8.18 8.18 0 0 1 71.63 48 7.9 7.9 0 0 0 74 49.72c4.87 2.27 10.8-1.15 10.8-1.15 4.08-2.36 6.29-1.68 6.91-1.39l.18.1c-3.87 1.26-5.37 5.89-5.37 5.89a13.54 13.54 0 0 1-3.7 6.52c3.32-1.81 4.57-7.29 4.57-7.29 2.65-4.9 5.58-4.77 5.58-4.77a26 26 0 0 1 3.47 1.3c4.24 2 4.57 4 4.57 4C105.36 62.74 98 71.11 98 71.11a38.84 38.84 0 0 0-4.75 10.56c-2.8 5.63-5.47 5.77-5.47 5.77A18.9 18.9 0 0 0 92.89 91a16.07 16.07 0 0 0 4.52 1.41c-2.45-6.18 8.3-24.33 8.3-24.33 3.16-7.2 2.16-12.78 2.16-12.78a25 25 0 0 1 .31-5.68c1.45-5.14 8.14-10.69 8.14-10.69a11.78 11.78 0 0 0 3.95-5.75 11 11 0 0 1 7-7.86c-6.76 1.62-8.2 9-8.2 9-1.34 2.88-2.18 2.89-2.49 2.74a.41.41 0 0 1-.13-.1c.81-1.74.1-7.11.1-7.11a28.52 28.52 0 0 1-.05-6.3c.51-2.67 3.06-7.34 3.06-7.34 1.75-4.63-1.82-8.3-1.82-8.3m-1.14 2.24a5.13 5.13 0 0 0 1 6.17s2.18-2.49-1-6.17m15.64 9.38c-5.93 2.16-4.44 5-4.44 5 2.76.41 4.44-5 4.44-5m-6.06-.86c-2.4 4.69-.77 5.55-.65 5.61a4.25 4.25 0 0 0 .65-5.61m-4.83-.11s-4.23 1.09-3.48 4.4a.88.88 0 0 0 .15.09c.49.23 2.09.52 3.32-4.49m2.31 3.86a6.76 6.76 0 0 0-2.51 5.62c3.6-1.61 2.51-5.62 2.51-5.62m-15.9-7.38c.78 3.76 2.33 4.95 3.12 5.32a1.8 1.8 0 0 0 .5.17c.89-3-3.63-5.48-3.63-5.48m6.4 3.18c-1.57 5.07.52 6.55.52 6.55 2.24-2.23-.52-6.55-.52-6.55M86.93 6.36a6.78 6.78 0 0 0-3.05-.48 6.86 6.86 0 0 0 3.07 3 6.06 6.06 0 0 0 1.53.48 2.63 2.63 0 0 0-1.55-3m40.35 19zm3.62 2zm0 0c-4.58-1.69-6.43 1.82-6.43 1.82a3.53 3.53 0 0 0 .44.25c2.91 1.36 6-2.07 6-2.07m-37.55-16.8a13.79 13.79 0 0 0-2.78-.91s-.1 2.76 3.47 4.43a11.56 11.56 0 0 0 2.26.76s.78-2.53-3-4.27m9.57 5.22a11.24 11.24 0 0 0-2.58-.79s1.37 2.82 3.38 3.76a3.12 3.12 0 0 0 .95.28s1.13-1.91-1.75-3.25m-5.38-.71s-.87 3.91 2.33 5.6a4.72 4.72 0 0 0-2.33-5.6m-8.18-3.45a10.08 10.08 0 0 0-2.09-.69A7 7 0 0 0 90.11 14a3.34 3.34 0 0 0 1.87.3s-.23-1.58-2.62-2.69m17.19 9.31a6.87 6.87 0 0 0-3.81-.47 9.14 9.14 0 0 0 2.93 2.23 6 6 0 0 0 3.19.58 4.47 4.47 0 0 0-2.31-2.35m12.7 6.25c-2.54 4.66-.79 6.53-.79 6.53 2.64-1.74.79-6.53.79-6.53m4.9 3.95c-5.28 1.62-4.26 4.44-4.26 4.44 3.62.08 4.26-4.44 4.26-4.44M93 16.67a12.74 12.74 0 0 0-2.22-.77s1.36 3.19 4 4.41a5 5 0 0 0 1.15.38s.63-2.37-2.9-4m16.48 8.43c-.4-.19-.66-.29-.66-.29.86 3 2 4.21 3 4.66a2.25 2.25 0 0 0 1.74.13c.47-2.12-2.65-3.84-4.06-4.5m-7.72-2.9s.09 4.55 2.5 5.67c0 0 3-2.94-2.5-5.67m-11.53-3a8 8 0 0 0-4.28-.54A8.27 8.27 0 0 0 88.91 21a5.45 5.45 0 0 0 3.54.42 4.24 4.24 0 0 0-2.25-2.22m4.39 2.32l-.67-.29S96 25.67 99 27.06l.33.14s.48-3.22-4.72-5.65m12.84 6.34c-2.2 4.77 1.42 7.06 1.42 7.06 2.35-3.09-1.42-7.06-1.42-7.06m4.85 3.41c-1.11 4.58.41 5.94 1.26 6.33a1.75 1.75 0 0 0 .49.16c1.87-2.07-1.75-6.49-1.75-6.49M84 20c-1-.47-2.66-.67-5 .78h.09c.56.26 3.75 1.63 6.13.08A3.16 3.16 0 0 0 84 20m8.52 5.17c-1.18-.55-3-.79-5.68.45a14.19 14.19 0 0 0 1.37.72c1.67.78 4.47 1.72 6 .23a4 4 0 0 0-1.69-1.41m-5.47-1.29c-3.28-1.53-7.16 2.08-7.16 2.08C84.88 27.05 87.4 24 87.4 24l-.31-.16M98 29.31a9 9 0 0 0-5-.64 12.33 12.33 0 0 0 2.64 1.66 8.12 8.12 0 0 0 4.7.81A5.77 5.77 0 0 0 98 29.31m12.89 6.84c-3.07 2.81-1.12 5.59-1.12 5.59v-.05c2.59-1.56 1.07-5.56 1.07-5.56M102 32.66a7.8 7.8 0 0 0-1.58-.54s1.53 3.34 4.27 4.62a5.19 5.19 0 0 0 1.26.41 7.6 7.6 0 0 0-3.95-4.49m-23.63-10c-1.11-.52-3-.66-6 1a7 7 0 0 0 1.15.66 6 6 0 0 0 6.25-.42 2.93 2.93 0 0 0-1.38-1.26M93.3 31a6.66 6.66 0 0 0-3.93-.5 8 8 0 0 0 2.77 2.19 5.88 5.88 0 0 0 3.73.46A6.47 6.47 0 0 0 93.3 31m-8.19-2.31a10.06 10.06 0 0 0-2-.67 7.2 7.2 0 0 0 3.12 3.68 3.91 3.91 0 0 0 2.08.35 5.32 5.32 0 0 0-3.2-3.36m17.5 9.31a9 9 0 0 0-4.12-.69 13.88 13.88 0 0 0 4.15 3.3 5.42 5.42 0 0 0 2.55.57 4.22 4.22 0 0 0-2.58-3.18M96 35.83c-.95-.44-2.67-.65-5.71.46l.38.18c1.31.61 5.63 2.44 6.4.31a2.11 2.11 0 0 0-1.07-1m-19-8.36a7.91 7.91 0 0 0-2.75-.64 7.44 7.44 0 0 0 2.8 3.09A2.46 2.46 0 0 0 79 30a2.9 2.9 0 0 0-2-2.57m11.32 7.06c-1-.48-2.83-.69-5.79.69l.38.19c1.08.5 4.26 1.74 6.62.15a2.64 2.64 0 0 0-1.2-1m15.28 7.59s-.81 3.26 1.4 4.89c0 0 2.15-2.48-1.4-4.89M80.82 31.89a6.43 6.43 0 0 0-4.89.08 9.12 9.12 0 0 0 2 1.3 4.65 4.65 0 0 0 4.47 0 3.52 3.52 0 0 0-1.61-1.42M94.05 39a9 9 0 0 0-1.88-.61s1.11 3 3.3 4.07a3.48 3.48 0 0 0 1.08.31s.45-2.43-2.5-3.77m5.85 5.11a8.84 8.84 0 0 0-1.73-.58s1.2 2.9 3.27 3.86a3.25 3.25 0 0 0 .82.26s.51-2.21-2.36-3.54m-22.5-9.96a9.25 9.25 0 0 0-4.27-.73 11.54 11.54 0 0 0 3.35 2.64 3.56 3.56 0 0 0 3.18.15 4.44 4.44 0 0 0-2.27-2.05m13 7a7.39 7.39 0 0 0-4-.5 6.37 6.37 0 0 0 2.71 2.4 6.57 6.57 0 0 0 3.59.54 4.25 4.25 0 0 0-2.3-2.44m-6.78-1.8a6 6 0 0 0-6.26.63c6.38 2.35 7.58.15 7.58.15q-.3-.21-.59-.39a7.73 7.73 0 0 0-.73-.39m-17.52-7.29c-1.08-.5-2.73-.73-5.27-.12A6.37 6.37 0 0 0 63 33.57a8.91 8.91 0 0 0 5 .68 3.39 3.39 0 0 0-1.94-2.17M92 44.91zm0 0a8 8 0 0 0-7.62.68 10 10 0 0 0 7.62-.68m-16.14-7.35c-1.18-.55-3.17-.87-6.18.39a8.76 8.76 0 0 0 1.42.82 6.19 6.19 0 0 0 6.18-.12 3.69 3.69 0 0 0-1.42-1.09m-5.29-2.14c-.47-.22-2.65-1-5.87 1l.2.1a4.86 4.86 0 0 0 5.76-1.06h-.09m22.51 13c-4.27.86-4.28 5.74-4.28 5.74 3.84-2.59 4.28-5.74 4.28-5.74m-3.81-.61zm0 0s-4-.6-6.5 3.76c0 0 5.18-1.09 6.5-3.76m-5.15-1.48c-.92-.43-2.6-.61-5.59.56a4.83 4.83 0 0 0 1 .62 6.13 6.13 0 0 0 5.59-.24 2 2 0 0 0-1-.94m-8.24-.3A14.86 14.86 0 0 0 72 45a10.64 10.64 0 0 0 3.84 3.39 5.51 5.51 0 0 0 2.57.55s.17-1.58-2.53-2.84m-8.33-3c-.5-.23-1.07-.46-1.72-.69a7.36 7.36 0 0 0 4 4.47 8.52 8.52 0 0 0 .86.34s1.36-2-3.12-4.12m18.35 9.18c-4.13.41-4.28 6-4.28 6 4.24-3 4.28-6 4.28-6m-21.08-8.59a13.33 13.33 0 0 0-4.34-1 11.5 11.5 0 0 0 3.4 2.58 5.42 5.42 0 0 0 2.73.56s.25-1.21-1.79-2.16m16.49 7.75c-.57-.27-2.65-.78-6.44 3.15 0 0 4.52-.45 6.61-3.05a.94.94 0 0 0-.17-.09m7.11 4c-3.85.9-2.52 6.34-2.52 6.34a9.19 9.19 0 0 0 2.52-6.34m-18.95-8.06a5.8 5.8 0 0 0-4.8.13s4.14 1.93 6.36 1.07a4.21 4.21 0 0 0-1.56-1.2m4.37 3c-1.25-.58-3.23-.81-6 .82 0 0 4.25 1.69 7.65.5a4.28 4.28 0 0 0-1.66-1.33M83 60zm0 0c-3.45-1.53-5.88 4.78-5.88 4.78C80.22 64.74 83 60 83 60m29.7-55.89a11 11 0 0 0-2.58-.81 8.78 8.78 0 0 0 3.56 3.64 2.83 2.83 0 0 0 1.69.32c-.08-1.57-1.38-2.56-2.66-3.15"/></g><path class="cls-2" d="M98.13 47.66c0-9.19 0-10.84.11-12.72.11-2.06.54-3.06 2-3.36a3.78 3.78 0 0 1 1.07-.08c.21 0-.24-.16-.24-.39s.11-.26-.48-.26c-1.6 0-4.41-.09-4.68-.09s-3.64-.18-6-.18c-.59 0-.86.12-.86.47a.38.38 0 0 0 .43.35 9.07 9.07 0 0 1 1.82.18c1.76.41 2.19 1.35 2.3 3.36s.11 3.53.11 12.72v17c0 15.2-1.66 18.32-5.13 22.2a10.68 10.68 0 0 1-1.87 1.65c-.48.35-.75.53-.75.88a.37.37 0 0 0 .37.35.72.72 0 0 0 .37-.12 21.73 21.73 0 0 0 2.09-1.47c4.33-3.3 6.68-6.07 7.8-9 1.6-4.18 1.6-7.83 1.6-17.37V47.66z"/><path class="cls-2" d="M86.88 77.71a23.22 23.22 0 0 0 7.21-.92c.72-.32.8-.4 1-1.16A41.48 41.48 0 0 0 96 70.5c0-.32-.08-.6-.28-.6s-.32.16-.4.6a7.62 7.62 0 0 1-1.48 3.36c-1.6 1.64-4 2-7 2A14.47 14.47 0 0 1 72.41 61.2c0-4.09.68-7.65 3.61-10.46 1.4-1.36 3.89-2.92 9.21-2.92 3.52 0 6.61 1.08 8 2.28a5.55 5.55 0 0 1 1.68 4.09c0 .56 0 .84.32.84s.32-.24.36-.84 0-2.8.12-4.13.2-1.92.2-2.24-.08-.4-.52-.44a34.78 34.78 0 0 1-4.09-.6 34.39 34.39 0 0 0-5.81-.48c-6.17 0-9.81 1.88-12.22 4.29a16 16 0 0 0-4.49 10.94 15.34 15.34 0 0 0 4.85 11.86c3.16 2.84 7.21 4.33 13.22 4.33z"/></svg>